HIERARCHY
ROOT pelvis
{
  OFFSET 0 100 0
  CHANNELS 6 Xposition Yposition Zposition Zrotation Xrotation Yrotation
  JOINT pelvis_right_femur
  {
    OFFSET -10.78128 -3.44521 -0.5502486
    CHANNELS 3 Zrotation Xrotation Yrotation
    JOINT right_femur_tibia
    {
      OFFSET -0.8047443 -44.0398 -0.1307829
      CHANNELS 3 Zrotation Xrotation Yrotation
      JOINT right_tibia_foot
      {
        OFFSET 3.006224 -47.83518 -5
        CHANNELS 3 Zrotation Xrotation Yrotation
        End Site
        {
          OFFSET 0 -5 15
        }
      }
    }
  }
  JOINT pelvis_left_femur
  {
    OFFSET 10.78128 -3.44521 -0.5502486
    CHANNELS 3 Zrotation Xrotation Yrotation
    JOINT left_femur_tibia
    {
      OFFSET 0.8047443 -44.0398 -0.1307829
      CHANNELS 3 Zrotation Xrotation Yrotation
      JOINT left_tibia_foot
      {
        OFFSET -4.370144 -48.10324 -4.275266
        CHANNELS 3 Zrotation Xrotation Yrotation
        End Site
        {
          OFFSET 0 -5 15
        }
      }
    }
  }
  JOINT pelvis_spine1
  {
    OFFSET 0 6.468898 -3.129235
    CHANNELS 3 Zrotation Xrotation Yrotation
    JOINT spine1
    {
      OFFSET 0 23.15396 4.99043
      CHANNELS 3 Zrotation Xrotation Yrotation
      JOINT spine2
      {
        OFFSET 0 20.79997 -5.064912
        CHANNELS 3 Zrotation Xrotation Yrotation
        JOINT neck
        {
          OFFSET 0 14.38658 9.616178
          CHANNELS 3 Zrotation Xrotation Yrotation
          End Site
          {
            OFFSET 0 20 0
          }
        }
      }
      JOINT right_manubrium
      {
        OFFSET -5.722621 16.35077 3.967754
        CHANNELS 3 Zrotation Xrotation Yrotation
        JOINT right_clavicle
        {
          OFFSET -13.16364 1.694482 -4.693211
          CHANNELS 3 Zrotation Xrotation Yrotation
          JOINT right_humerus
          {
            OFFSET -28.5034 -0.3100689 -2.792744
            CHANNELS 3 Zrotation Xrotation Yrotation
            JOINT right_radius
            {
              OFFSET -25.15693 0.02248979 -1.271978
              CHANNELS 3 Zrotation Xrotation Yrotation
              End Site
              {
                OFFSET -15 0 0
              }
            }
          }
        }
      }
      JOINT left_manubrium
      {
        OFFSET 5.722621 16.35077 3.967754
        CHANNELS 3 Zrotation Xrotation Yrotation
        JOINT left_clavicle
        {
          OFFSET 13.16364 1.694482 -4.693211
          CHANNELS 3 Zrotation Xrotation Yrotation
          JOINT left_humerus
          {
            OFFSET 29.39168 -1.063119 -2.237045
            CHANNELS 3 Zrotation Xrotation Yrotation
            JOINT left_radius
            {
              OFFSET 24.59957 -0.9528479 0.9047498
              CHANNELS 3 Zrotation Xrotation Yrotation
              End Site
              {
                OFFSET 15 -0 -0
              }
            }
          }
        }
      }
    }
  }
}
MOTION
Frames: 9
Frame Time: 0.0416666666667
0 103.5113 0 0.07890346 -0.8981594 0.03719979 4.59976 -19.63873 9.372612 -0 38.45249 -0 -6.064348 -13.39798 -3.237331 -6.567743 10.42043 -21.81045 -0 6.146879 -0 8.781248 -17.07921 26.60238 -2.912392 -2.839932 4.424181 2.270743 9.855533 -7.570216 1.51037 21.8819 6.867089 2.959437 -25.13075 9.924531 5.304255 -20.08578 11.38459 86.60623 34.45959 -18.89709 -0 0 16.19856 -7.700082 7.869743 4.242364 6.191464 -19.80031 -1.451308 -93.25222 25.09525 21.52417 0 0 -15.18169 10.96892 16.33522 1.90228
0.2761598 103.0865 1.976452 -0.1016156 -0.8873212 0.07802671 4.710868 -20.62538 8.820638 -0 37.38764 -0 -6.238446 -12.33685 -3.076475 -6.38949 10.62632 -21.34054 -0 6.124609 -0 8.103939 -17.80748 26.05839 -2.816733 -2.57744 4.258206 2.334164 9.783775 -7.585489 1.510292 21.84987 6.944959 3.004441 -25.29738 9.95734 5.026057 -19.94813 11.31688 86.7291 33.87629 -18.92032 -0 0 15.93309 -8.130797 7.816583 4.433429 6.352991 -19.98283 -1.437353 -93.10424 24.91772 21.19145 0 0 -15.26156 10.86523 16.33627 1.930976
0.5703575 102.4522 4.199882 -0.5584357 0.2691019 0.09529262 5.610005 -24.68682 8.319674 -0 32.12193 -0 -6.19332 -10.75691 -2.584234 -6.110211 11.33984 -20.78062 -0 5.899441 -0 7.562693 -19.75744 25.32603 -2.771533 -2.191679 4.228788 2.863135 9.657774 -7.920038 1.508093 21.21135 7.193229 3.272982 -26.36136 10.15487 4.994514 -19.81812 11.33459 86.6069 33.89529 -19.40905 -0 0 15.7165 -8.159985 8.102584 4.549387 6.953721 -20.5159 -1.042739 -93.06829 24.26353 20.85439 0 0 -16.18356 11.09652 15.88245 1.446922
0.8684106 101.6121 6.758645 -0.9372794 1.516355 0.1654691 6.461285 -28.4315 7.867984 -0 26.79477 -0 -6.167964 -9.062113 -2.071493 -5.879525 12.19154 -20.12789 -0 6.065052 -0 6.743889 -21.62329 24.27248 -2.755572 -1.860727 4.165056 3.351897 9.478946 -8.241393 1.489317 20.56248 7.459615 3.57262 -27.31024 10.32747 4.984107 -19.52817 11.32153 86.59818 34.07804 -20.05923 -0 0 15.32294 -8.085308 8.392527 4.580979 7.511303 -21.00245 -0.6457803 -92.92878 23.78997 20.40674 0 0 -17.30257 11.21757 15.30111 1.042858
1.157097 100.6243 9.786324 -1.268596 2.784636 0.3602596 7.24203 -31.67765 7.37309 -0 21.68354 -0 -6.235076 -7.170227 -1.534577 -5.661337 13.14042 -19.2465 -0 6.845584 -0 5.541631 -23.14598 22.69217 -2.693776 -1.572887 4.012656 3.760387 9.256873 -8.524652 1.441373 19.94909 7.7303 3.871085 -28.05764 10.4382 4.952505 -19.03429 11.2812 86.77311 34.32742 -20.84883 -0 0 14.63089 -8.0071 8.682598 4.588998 7.9623 -21.43438 -0.3303528 -92.56326 23.41491 19.73611 0 0 -18.61918 11.30436 14.56904 0.6531128
1.424198 99.58547 13.40961 -1.620472 3.986631 0.7399154 7.982036 -34.09027 6.876825 -0 17.36884 -0 -6.462063 -5.236467 -1.032596 -5.385061 14.09792 -18.13629 -0 8.586509 -0 3.774226 -23.96484 20.4201 -2.482676 -1.348843 3.721975 4.065513 8.992187 -8.764663 1.348639 19.41863 7.972747 4.126501 -28.53971 10.43313 4.933229 -18.3339 11.23065 87.10477 34.59863 -21.72603 -0 0 13.68215 -7.942195 8.990169 4.595213 8.187232 -21.73072 -0.1748141 -92.04537 23.22272 18.97813 0 0 -19.89332 11.18417 13.78451 0.5000346
1.660383 98.62938 17.71836 -2.069355 4.913376 1.318891 8.684805 -35.22171 6.393646 -0 14.59178 -0 -6.948037 -3.526685 -0.6517142 -4.965941 14.85903 -16.80929 -0 11.74709 -0 1.448039 -23.57049 17.49453 -2.005586 -1.198878 3.261552 4.238036 8.714594 -8.942796 1.20089 19.07386 8.129555 4.270007 -28.67642 10.25092 4.933641 -17.47114 11.19677 87.5491 34.76568 -22.54983 -0 0 12.50934 -7.976822 9.325012 4.661878 8.058406 -21.82897 -0.2733091 -91.44612 23.22296 18.24725 0 0 -20.79379 10.77936 13.0975 0.7230707
1.863709 97.91482 22.71718 -2.642148 5.300927 2.022803 9.325417 -34.68464 5.938401 -0 13.84551 -0 -7.754288 -2.420521 -0.493179 -4.356316 15.11227 -15.36493 -0 16.80263 -0 -1.134254 -21.59223 14.3404 -1.219652 -1.118289 2.682895 4.274206 8.474849 -9.036829 1.011229 19.02979 8.134702 4.243314 -28.44012 9.864627 4.950386 -16.55836 11.2058 88.00916 34.70523 -23.12101 -0 0 11.19906 -8.189936 9.68692 4.84009 7.517572 -21.7049 -0.6474779 -90.90087 23.39253 17.6794 0 0 -20.97329 10.07915 12.67392 1.383944
2.040333 97.58746 28.29284 -3.225318 4.892831 2.670583 9.773151 -32.24956 5.455818 -0 14.9243 -0 -8.844543 -2.254677 -0.6240507 -3.623526 14.47545 -13.95455 -0 24.01543 -0 -3.454881 -18.14422 11.70134 -0.2480968 -1.07179 2.15928 4.1846 8.339864 -9.002909 0.8350434 19.38392 7.935707 4.033733 -27.84534 9.315997 4.922688 -15.75319 11.25936 88.39084 34.29297 -23.25025 -0 0 9.87703 -8.645918 10.0363 5.131041 6.655812 -21.41047 -1.205681 -90.55547 23.66323 17.33927 0 0 -20.24593 9.20692 12.6147 2.345377
